<?xml version="1.0" encoding="UTF-8" standalone="no"?>
<svg width="75px" height="86px" viewBox="0 0 75 86" version="1.1" xmlns="http://www.w3.org/2000/svg" xmlns:xlink="http://www.w3.org/1999/xlink" xmlns:sketch="http://www.bohemiancoding.com/sketch/ns">
    <!-- Generator: Sketch 3.3.2 (12043) - http://www.bohemiancoding.com/sketch -->
    <title>Books</title>
    <desc>Created with Sketch.</desc>
    <defs></defs>
    <g id="0620" stroke="none" stroke-width="1" fill="none" fill-rule="evenodd" sketch:type="MSPage">
        <g id="Self-Check-UI-4" sketch:type="MSArtboardGroup" transform="translate(-773.000000, -513.000000)" fill="#000000">
            <g id="Content" sketch:type="MSLayerGroup" transform="translate(368.000000, 203.000000)">
                <g id="Books" transform="translate(405.000000, 310.000000)" sketch:type="MSShapeGroup">
                    <path d="M73.2715385,18.0507692 C72.6865385,17.5961538 71.9411538,17.4923077 71.2834615,17.7784615 L39.5111538,31.5369231 C38.1288462,32.1380769 36.4003846,32.4276923 34.6246154,32.4276923 C32.1484615,32.4346154 29.5857692,31.8576923 27.8007692,31.0719231 C27.1615385,30.7996154 26.6273077,30.4926923 26.2511538,30.2192308 C26.3896154,30.1511538 26.5465385,30.0807692 26.7311538,30.0080769 L55.635,17.4980769 L59.9492308,19.3430769 L59.9492308,13.9523077 C59.9492308,13.1492308 59.6088462,12.3888462 59.0238462,11.94 C58.4388462,11.4853846 57.6911538,11.3815385 57.0392308,11.6676923 L25.2380769,25.4238462 C24.2584615,25.8219231 23.4161538,26.3053846 22.7019231,27.0138462 C22.0015385,27.6980769 21.3969231,28.8288462 21.4061538,30.0842308 C21.4061538,30.1188462 21.4153846,30.1742308 21.4153846,30.1742308 L21.4153846,78.6196154 C21.4153846,78.6380769 21.4096154,78.6611538 21.4096154,78.6842308 C21.4096154,78.7003846 21.4153846,78.7061538 21.4153846,78.7223077 L21.4153846,78.7742308 L21.4223077,78.7742308 C21.4938462,80.49 22.3442308,81.585 23.16,82.3073077 C25.7273077,84.5711538 30.0369231,85.8380769 34.6188462,85.9396154 C36.7903846,85.9396154 38.9953846,85.5969231 41.0307692,84.7361538 L72.81,70.9626923 C73.6511538,70.62 74.1980769,69.7038462 74.1980769,68.6988462 L74.1980769,20.0665385 C74.1957692,19.2646154 73.8496154,18.5053846 73.2715385,18.0507692" id="Fill-1-Copy"></path>
                    <path d="M53.1196154,8.84076923 C53.0630769,8.115 52.7665385,7.43076923 52.2265385,7.01307692 C51.645,6.55846154 50.8973077,6.45461538 50.235,6.74076923 L18.465,20.4980769 C17.0838462,21.0957692 15.3519231,21.39 13.5784615,21.39 C11.1023077,21.3934615 8.53846154,20.8165385 6.75346154,20.0319231 C6.11884615,19.7619231 5.58230769,19.455 5.205,19.1815385 C5.34346154,19.1123077 5.50384615,19.0430769 5.685,18.9715385 L34.5853846,6.46038462 L38.8938462,8.30653846 L38.8938462,2.91461538 C38.8938462,2.11153846 38.5442308,1.35230769 37.9603846,0.902307692 C37.38,0.447692308 36.6207692,0.341538462 35.9665385,0.63 L4.19423077,14.3861538 C3.21461538,14.7807692 2.37576923,15.2653846 1.66153846,15.9761538 C0.958846154,16.6603846 0.356538462,17.7911538 0.365769231,19.0488462 C0.365769231,19.0834615 0.375,19.1365385 0.375,19.1365385 L0.375,67.5842308 C0.375,67.6026923 0.371538462,67.6292308 0.371538462,67.6476923 C0.371538462,67.6603846 0.375,67.6661538 0.375,67.7180769 L0.375,67.7815385 L0.381923077,67.7815385 C0.451153846,69.4973077 1.30384615,70.5923077 2.11961538,71.3053846 C4.68692308,73.5703846 8.99653846,74.7969231 13.5807692,74.9123077 C14.8176923,74.9123077 16.0603846,74.7519231 17.2834615,74.5211538 L17.2834615,30.1869231 C17.2511538,27.885 18.1719231,25.6742308 19.7907692,24.0830769 C20.8396154,23.0469231 22.1192308,22.2276923 23.7046154,21.5965385 L53.1196154,8.84076923" id="Fill-2-Copy"></path>
                </g>
            </g>
        </g>
    </g>
</svg>