<?xml version="1.0" encoding="UTF-8" standalone="no"?>
<svg width="75px" height="82px" viewBox="0 0 75 82" version="1.1" xmlns="http://www.w3.org/2000/svg" xmlns:xlink="http://www.w3.org/1999/xlink" xmlns:sketch="http://www.bohemiancoding.com/sketch/ns">
    <!-- Generator: Sketch 3.3.2 (12043) - http://www.bohemiancoding.com/sketch -->
    <title>Imported Layers</title>
    <desc>Created with Sketch.</desc>
    <defs></defs>
    <g id="0620" stroke="none" stroke-width="1" fill="none" fill-rule="evenodd" sketch:type="MSPage">
        <g id="Self-Check-UI-5" sketch:type="MSArtboardGroup" transform="translate(-782.000000, -517.000000)" fill="#000000">
            <g id="Content" sketch:type="MSLayerGroup" transform="translate(368.000000, 203.000000)">
                <g id="Imported-Layers" transform="translate(414.000000, 314.000000)" sketch:type="MSShapeGroup">
                    <path d="M37.7408491,33.4522642 C44.1549057,33.4522642 49.3567925,28.244717 49.3567925,21.8346226 C49.3567925,15.4157547 44.1540566,10.2195283 37.7408491,10.2195283 C31.3276415,10.2195283 26.1266038,15.4151887 26.1266038,21.8346226 C26.1266038,28.244717 31.3276415,33.4522642 37.7408491,33.4522642" id="Fill-1"></path>
                    <path d="M19.5464151,81.509434 L19.5464151,71.2016038 L9.21028302,74.0782075 C8.45122642,74.3799057 7.62735849,74.5485849 6.76584906,74.5485849 C3.1109434,74.549434 0.147169811,71.5766038 0.147169811,67.9267925 C0.147169811,66.5507547 0.564622642,65.2785849 1.27783019,64.2229245 L17.8584906,41.4874528 C19.6587736,39.0209434 22.1725472,36.2742453 27.4740566,36.2742453 L47.520566,36.2742453 C52.8195283,36.2742453 55.334717,39.0217925 57.1330189,41.4874528 L73.7128302,64.2229245 C74.4257547,65.2785849 74.8457547,66.5507547 74.8457547,67.9267925 C74.8457547,71.5774528 71.8785849,74.549434 68.2270755,74.549434 C67.3664151,74.549434 66.5391509,74.3804717 65.7826415,74.0790566 L55.4422642,71.2024528 L55.4422642,81.509434 L19.5464151,81.509434 L19.5464151,81.509434 Z M37.4963208,74.3080189 L37.4963208,74.3080189 L50.8907547,69.8765094 L50.5893396,69.7916038 C41.3470755,67.0723585 44.9456604,54.8623585 54.1853774,57.5881132 L55.4487736,58.0126415 L55.4487736,44.2253774 L37.4963208,50.0900943 L19.544717,44.2253774 L19.544717,58.0134906 L20.8016038,57.5889623 C30.0489623,54.8623585 33.6458491,67.0732075 24.3996226,69.7941509 L24.1035849,69.8770755 L37.4963208,74.3080189 L37.4963208,74.3080189 Z" id="Fill-2"></path>
                    <path d="M8.78716981,29.3711321 C9.1995283,30.2569811 10.1932075,30.8292453 11.3179245,30.8292453 L11.3204717,30.8292453 C12.4437736,30.8292453 13.4371698,30.2569811 13.8506604,29.3711321 L14.1365094,28.7581132 L8.50018868,28.7581132 L8.78716981,29.3711321" id="Fill-3"></path>
                    <path d="M14.3974528,25.4040566 L8.26471698,25.4032075 C7.84584906,25.4040566 7.59056604,25.5883019 7.45132075,25.7422642 C7.27358491,25.9378302 7.17650943,26.204434 7.17735849,26.4914151 C7.17650943,26.7987736 7.28575472,27.0789623 7.48386792,27.2770755 C7.68198113,27.4760377 7.95254717,27.5810377 8.26641509,27.5810377 L14.3974528,27.5810377 C15.0390566,27.5810377 15.4865094,27.1335849 15.4865094,26.4922642 C15.4848113,25.8515094 15.0382075,25.4040566 14.3974528,25.4040566" id="Fill-4"></path>
                    <path d="M15.2419811,22.1892453 L7.42018868,22.1892453 C6.77971698,22.1909434 6.33283019,22.6383962 6.33283019,23.2791509 C6.33283019,23.9204717 6.78028302,24.3679245 7.42018868,24.3679245 L15.2411321,24.3679245 C15.8824528,24.3679245 16.3301887,23.9196226 16.3301887,23.28 C16.3307547,22.9726415 16.2217925,22.6930189 16.0236792,22.4932075 C15.824717,22.2945283 15.555,22.1892453 15.2419811,22.1892453" id="Fill-5"></path>
                    <path d="M18.4338679,2.92301887 C16.5786792,1.07009434 14.1082075,0.0489622642 11.4778302,0.0489622642 C6.06650943,0.0489622642 1.66330189,4.45132075 1.66245283,9.86264151 C1.66330189,12.5116981 2.76198113,15.0874528 4.64320755,16.8953774 C5.12971698,17.4798113 5.43141509,18.2685849 5.53330189,20.5720755 C5.56669811,21.3016981 6.09424528,21.8111321 6.88471698,21.8111321 L6.88896226,21.8111321 C7.2540566,21.794717 7.58009434,21.6498113 7.80820755,21.4010377 C8.03490566,21.1542453 8.14556604,20.8273585 8.12858491,20.4563208 C8.00971698,17.7860377 7.58490566,16.3466038 6.53179245,15.1143396 C5.08839623,13.7383019 4.26084906,11.8245283 4.26084906,9.86349057 C4.26084906,5.88424528 7.49773585,2.64650943 11.475283,2.64650943 C15.4669811,2.64650943 18.7134906,5.88509434 18.7134906,9.86349057 C18.7134906,11.8245283 17.8853774,13.7391509 16.4116981,15.1485849 C15.389434,16.3466038 14.9654717,17.7854717 14.8466038,20.4580189 C14.8132075,21.209434 15.3348113,21.779434 16.0848113,21.8128302 L16.1524528,21.8142453 C16.8786792,21.8142453 17.4084906,21.3042453 17.4410377,20.5729245 C17.5437736,18.270283 17.8451887,17.4812264 18.299434,16.9310377 C20.2149057,15.0874528 21.3127358,12.5116981 21.3118868,9.86349057 C21.3101887,7.23962264 20.2882075,4.77566038 18.4338679,2.92301887 L18.4338679,2.92301887 Z M16.1499057,21.3758491 L16.1499057,21.3758491 L16.1507547,21.3823585 L16.1499057,21.3758491 L16.1499057,21.3758491 Z" id="Fill-6"></path>
                </g>
            </g>
        </g>
    </g>
</svg>