<?xml version="1.0" encoding="UTF-8" standalone="no"?>
<svg width="107px" height="108px" viewBox="0 0 107 108" version="1.1" xmlns="http://www.w3.org/2000/svg" xmlns:xlink="http://www.w3.org/1999/xlink" xmlns:sketch="http://www.bohemiancoding.com/sketch/ns">
    <!-- Generator: Sketch 3.3.2 (12043) - http://www.bohemiancoding.com/sketch -->
    <title>Icon</title>
    <desc>Created with Sketch.</desc>
    <defs></defs>
    <g id="Spec" stroke="none" stroke-width="1" fill="none" fill-rule="evenodd" sketch:type="MSPage">
        <g id="Spec-3" sketch:type="MSArtboardGroup" transform="translate(-262.000000, -482.000000)">
            <g id="Group" sketch:type="MSLayerGroup" transform="translate(130.000000, 118.000000)">
                <g id="Icon" transform="translate(135.500000, 366.000000)" sketch:type="MSShapeGroup">
                    <circle id="Oval-72-Copy" fill="#A6B0B3" cx="50" cy="50" r="50"></circle>
                    <path d="M47.8406003,21.9444444 L47.8406003,31.8138889 L41.6678225,31.8138889 L50.9267114,41.6816667 L60.1861559,31.8138889 L54.0133781,31.8138889 L54.0133781,21.9444444 L47.8406003,21.9444444 M41.0506003,24.1538889 C32.7783781,27.9905556 27.4817114,36.27 27.4706003,45.3816667 C27.4739336,47.6477778 27.8067114,49.9011111 28.4578225,52.0716667 L25.1378225,60.4194444 C24.8878225,61.0461111 24.9856003,61.8427778 25.3689336,62.3055556 C25.5533781,62.5283333 25.7856003,62.6494444 26.0250448,62.6488889 L31.6611559,62.6488889 L33.5194892,69.5883333 C34.227267,72.2288889 36.9256003,73.7844444 39.5683781,73.0766667 L45.7967114,71.4111111 L47.4283781,77.5 L70.4350448,77.5 L66.5106003,62.8655556 C71.5106003,58.4261111 74.3750448,52.065 74.3844892,45.3816667 C74.3733781,36.2694444 69.0767114,27.99 60.8044892,24.1533333 L60.8044892,28.025 C67.257267,32.2361111 70.6706003,40.0783333 69.042267,46.3077778 C67.0194892,54.0461111 60.5700448,46.4833333 50.872267,43.82 C41.1750448,41.1566667 31.9017114,44.4011111 33.9244892,36.6627778 C34.8628225,33.0733333 37.5139336,29.8783333 41.052267,27.7494444 L41.052267,24.155 M35.8050448,46.8594444 C37.3394892,46.8594444 38.5828225,48.1022222 38.5828225,49.635 C38.5828225,51.1677778 37.3394892,52.41 35.8050448,52.41 C34.2711559,52.41 33.0278225,51.1677778 33.0278225,49.635 C33.0278225,48.1022222 34.2711559,46.8594444 35.8050448,46.8594444" id="Imported-Layers" fill="#FFFFFF"></path>
                </g>
            </g>
        </g>
    </g>
</svg>