<?xml version="1.0" encoding="UTF-8" standalone="no"?>
<svg width="107px" height="108px" viewBox="0 0 107 108" version="1.1" xmlns="http://www.w3.org/2000/svg" xmlns:xlink="http://www.w3.org/1999/xlink" xmlns:sketch="http://www.bohemiancoding.com/sketch/ns">
    <!-- Generator: Sketch 3.3.2 (12043) - http://www.bohemiancoding.com/sketch -->
    <title>Icon</title>
    <desc>Created with Sketch.</desc>
    <defs></defs>
    <g id="Spec" stroke="none" stroke-width="1" fill="none" fill-rule="evenodd" sketch:type="MSPage">
        <g id="Spec-3" sketch:type="MSArtboardGroup" transform="translate(-262.000000, -1872.000000)">
            <g id="Group" sketch:type="MSLayerGroup" transform="translate(130.000000, 118.000000)">
                <g id="Quiz" transform="translate(0.000000, 1728.000000)" sketch:type="MSShapeGroup">
                    <g id="Icon" transform="translate(135.500000, 28.000000)">
                        <circle id="Oval-77" fill="#FFFFFF" cx="50" cy="50" r="50"></circle>
                        <g id="Imported-Layers" transform="translate(18.500000, 26.084158)" fill="#137FAA">
                            <path d="M21.804604,19.6660396 C15.4024257,17.0139109 9.77960396,16.7751485 4.61693069,18.9201485 L4.2990099,18.1369307 C9.67856436,15.9082673 15.520198,16.155396 22.1315347,18.8873267 L21.804604,19.6660396" id="Fill-1"></path>
                            <path d="M22.1315347,24.0075248 C15.5279208,21.2794554 9.67856436,21.0323267 4.2990099,23.2571287 L4.61757426,24.0364851 C9.79633663,21.8998515 15.4107921,22.1431188 21.8052475,24.7868812 L22.1315347,24.0075248" id="Fill-2"></path>
                            <path d="M22.1315347,13.7664851 C15.5279208,11.0390594 9.67856436,10.7912871 4.2990099,13.0122277 L4.61757426,13.7960891 C9.79633663,11.6549505 15.4107921,11.8975743 21.8052475,14.5464851 L22.1315347,13.7664851" id="Fill-3"></path>
                            <path d="M50.6150495,23.8691584 L50.6150495,38.0314356 C38.7322772,30.5055941 28.4584158,37.3981683 28.4584158,38.5752475 L28.4584158,13.4987624 C28.4584158,9.04465347 34.349604,6.63965347 41.6070792,6.63965347 C43.6098515,6.63965347 45.4864851,6.94148515 47.179703,7.43123762 L49.6265347,4.98440594 C37.4670297,1.26331683 28.1321287,6.76064356 26.849505,7.94673267 C25.0140594,6.16985149 14.455099,0.0148019802 0,6.29148515 L0,10.7745545 L0,40.7208911 L21.9635644,40.7208911 C22.7178218,41.3702475 24.5024257,41.8316832 26.589505,41.8316832 C28.6759406,41.8316832 30.4611881,41.3702475 31.2238119,40.7208911 L53.1796535,40.7208911 L53.1796535,21.3006931 L50.6150495,23.8691584 L50.6150495,23.8691584 Z M24.8885644,38.5752475 C24.8885644,37.3981683 14.6063366,30.5055941 2.74029703,38.0307921 L2.74029703,8.8309901 C5.08673267,7.47371287 8.25435644,6.63965347 11.7405446,6.63965347 C18.9973762,6.63965347 24.8885644,9.04465347 24.8885644,13.4987624 L24.8885644,38.5752475 L24.8885644,38.5752475 Z" id="Fill-4"></path>
                            <path d="M30.1258911,18.8866832 L30.4444554,19.6660396 C32.9665842,18.6189604 35.5646535,18.0532673 38.1202475,17.7514356 L38.4890099,16.8633168 C35.7068812,17.1439109 32.8745545,17.7514356 30.1258911,18.8866832" id="Fill-5"></path>
                            <path d="M30.1258911,24.0075248 L30.4444554,24.7868812 C32.2457921,24.045495 34.0812376,23.5338614 35.9250495,23.1689604 L36.2854455,22.2718317 C34.2241089,22.645099 32.145396,23.1734653 30.1258911,24.0075248" id="Fill-6"></path>
                            <path d="M30.1258911,13.7664851 L30.4444554,14.5458416 C34.3161386,12.945297 38.3551485,12.3126733 42.1425248,12.4716337 L42.9386139,11.6755446 C38.8159406,11.3827228 34.3663366,12.0114851 30.1258911,13.7664851" id="Fill-7"></path>
                            <path d="M63.9812376,5.41173267 L59.1377723,0.568267327 C58.4761881,-0.102326733 57.1433663,0.137079208 56.1883168,1.0959901 L40.6011881,16.6869802 L38.9581683,20.6963861 C38.5900495,21.6057426 38.0700495,22.9089604 37.6176238,24.0107426 C37.4921287,24.3170792 37.3492574,24.6684653 37.240495,24.9155941 L36.4778713,26.8134653 C36.0003465,27.9789604 36.569901,28.5401485 37.7257426,28.0748515 L39.6281188,27.295495 C39.8713861,27.195099 40.2317822,27.0522277 40.5329703,26.9267327 C41.6392574,26.4833168 42.9302475,25.9504455 43.8511881,25.5861881 L47.8573762,23.9476733 L63.4522277,8.35668317 C64.4085644,7.40163366 64.6434653,6.07782178 63.9812376,5.41173267 L63.9812376,5.41173267 Z M43.3665842,24.3717822 L40.8444554,25.3982673 L39.1512376,23.7011881 L39.6538614,22.460396 L40.1738614,21.1912871 L41.0619802,18.9954455 L45.5456931,23.4830198 L43.3665842,24.3717822 L43.3665842,24.3717822 Z" id="Fill-8"></path>
                        </g>
                    </g>
                </g>
            </g>
        </g>
    </g>
</svg>